<svg xmlns="http://www.w3.org/2000/svg" width="1400" height="720" viewBox="0 0 1400 720">
<rect width="100%" height="100%" fill="#FFFFFF"/>
<style>text{font-family:"Microsoft YaHei","SimHei",Arial,sans-serif;fill:#263238}</style>
<text x="108" y="38" font-size="26" font-weight="700">光伏预测日均残差：实际值－预测值</text>
<line x1="108" y1="630.00" x2="1292" y2="630.00" stroke="#E4EAF0"/>
<text x="96" y="635.00" text-anchor="end" font-size="14">-440.85</text>
<line x1="108" y1="521.60" x2="1292" y2="521.60" stroke="#E4EAF0"/>
<text x="96" y="526.60" text-anchor="end" font-size="14">-223.12</text>
<line x1="108" y1="413.20" x2="1292" y2="413.20" stroke="#E4EAF0"/>
<text x="96" y="418.20" text-anchor="end" font-size="14">-5.39</text>
<line x1="108" y1="304.80" x2="1292" y2="304.80" stroke="#E4EAF0"/>
<text x="96" y="309.80" text-anchor="end" font-size="14">212.34</text>
<line x1="108" y1="196.40" x2="1292" y2="196.40" stroke="#E4EAF0"/>
<text x="96" y="201.40" text-anchor="end" font-size="14">430.07</text>
<line x1="108" y1="88.00" x2="1292" y2="88.00" stroke="#E4EAF0"/>
<text x="96" y="93.00" text-anchor="end" font-size="14">647.80</text>
<line x1="108.00" y1="88" x2="108.00" y2="630" stroke="#F0F3F6"/>
<text x="108.00" y="658" text-anchor="middle" font-size="14">2025-02-01</text>
<line x1="502.67" y1="88" x2="502.67" y2="630" stroke="#F0F3F6"/>
<text x="502.67" y="658" text-anchor="middle" font-size="14">2025-05-23</text>
<line x1="897.33" y1="88" x2="897.33" y2="630" stroke="#F0F3F6"/>
<text x="897.33" y="658" text-anchor="middle" font-size="14">2025-09-11</text>
<line x1="1292.00" y1="88" x2="1292.00" y2="630" stroke="#F0F3F6"/>
<text x="1292.00" y="658" text-anchor="middle" font-size="14">2025-12-31</text>
<polyline points="108.00,407.09 111.56,380.60 115.11,346.18 118.67,343.63 122.22,426.57 125.78,295.71 129.33,322.08 132.89,485.71 136.44,374.20 140.00,352.67 143.56,352.73 147.11,353.29 150.67,375.90 154.22,402.96 157.78,357.80 161.33,329.71 164.89,249.36 168.44,443.15 172.00,445.49 175.56,357.32 179.11,384.97 182.67,397.28 186.22,378.66 189.78,387.57 193.33,274.67 196.89,478.24 200.44,421.94 204.00,440.52 207.56,293.23 211.11,402.91 214.67,342.44 218.22,466.06 221.78,330.45 225.33,430.05 228.89,334.38 232.44,401.96 236.00,291.58 239.56,442.54 243.11,546.95 246.67,307.94 250.22,405.44 253.78,450.76 257.33,392.78 260.89,390.41 264.44,362.13 268.00,266.21 271.56,507.94 275.11,385.91 278.67,327.61 282.22,358.46 285.78,278.04 289.33,350.15 292.89,248.21 296.44,358.27 300.00,337.14 303.56,345.64 307.11,387.97 310.67,281.90 314.22,514.42 317.78,301.51 321.33,382.53 324.89,269.64 328.44,386.01 332.00,464.00 335.56,325.81 339.11,461.60 342.67,294.59 346.22,427.90 349.78,366.42 353.33,530.30 356.89,265.12 360.44,421.73 364.00,299.61 367.56,446.57 371.11,409.76 374.67,486.98 378.22,458.55 381.78,361.73 385.33,445.12 388.89,268.30 392.44,513.19 396.00,533.95 399.56,420.11 403.11,464.52 406.67,417.64 410.22,476.77 413.78,403.60 417.33,415.52 420.89,491.85 424.44,439.05 428.00,388.58 431.56,354.36 435.11,354.24 438.67,409.59 442.22,529.58 445.78,510.32 449.33,400.34 452.89,314.35 456.44,414.78 460.00,429.88 463.56,516.84 467.11,355.75 470.67,395.42 474.22,442.97 477.78,401.02 481.33,376.53 484.89,334.75 488.44,355.67 492.00,499.45 495.56,520.18 499.11,463.39 502.67,381.60 506.22,448.24 509.78,363.18 513.33,551.91 516.89,498.96 520.44,402.27 524.00,447.60 527.56,333.74 531.11,305.79 534.67,326.78 538.22,249.40 541.78,372.99 545.33,182.44 548.89,434.94 552.44,407.17 556.00,298.52 559.56,365.64 563.11,306.41 566.67,458.48 570.22,428.41 573.78,399.11 577.33,423.53 580.89,345.58 584.44,487.13 588.00,455.08 591.56,464.99 595.11,387.68 598.67,407.72 602.22,365.29 605.78,401.03 609.33,452.43 612.89,422.59 616.44,371.06 620.00,450.07 623.56,451.04 627.11,382.98 630.67,413.90 634.22,518.38 637.78,419.76 641.33,477.22 644.89,439.92 648.44,405.10 652.00,473.87 655.56,488.67 659.11,533.99 662.67,374.52 666.22,355.97 669.78,331.44 673.33,452.46 676.89,390.56 680.44,555.69 684.00,279.57 687.56,384.16 691.11,369.65 694.67,404.61 698.22,472.24 701.78,344.35 705.33,282.26 708.89,355.91 712.44,390.55 716.00,447.22 719.56,251.57 723.11,264.80 726.67,462.50 730.22,357.68 733.78,428.10 737.33,454.93 740.89,479.88 744.44,579.56 748.00,519.22 751.56,340.48 755.11,193.49 758.67,462.46 762.22,404.02 765.78,472.38 769.33,374.87 772.89,226.46 776.44,434.52 780.00,387.29 783.56,396.80 787.11,419.33 790.67,346.21 794.22,473.12 797.78,446.29 801.33,183.65 804.89,214.24 808.44,319.47 812.00,395.31 815.56,417.49 819.11,381.79 822.67,359.02 826.22,373.59 829.78,453.62 833.33,406.91 836.89,117.04 840.44,438.07 844.00,470.24 847.56,526.36 851.11,271.18 854.67,272.81 858.22,471.04 861.78,248.43 865.33,447.67 868.89,375.38 872.44,394.70 876.00,459.18 879.56,434.58 883.11,474.53 886.67,381.29 890.22,482.02 893.78,387.95 897.33,250.91 900.89,505.20 904.44,462.80 908.00,281.62 911.56,495.25 915.11,265.93 918.67,379.36 922.22,520.78 925.78,433.18 929.33,478.29 932.89,347.16 936.44,300.98 940.00,366.34 943.56,562.04 947.11,408.43 950.67,321.29 954.22,557.27 957.78,469.95 961.33,365.08 964.89,460.36 968.44,279.04 972.00,177.31 975.56,391.40 979.11,220.71 982.67,246.05 986.22,542.95 989.78,445.21 993.33,456.06 996.89,233.56 1000.44,251.75 1004.00,336.19 1007.56,417.04 1011.11,345.31 1014.67,355.51 1018.22,332.60 1021.78,423.78 1025.33,600.96 1028.89,335.61 1032.44,404.57 1036.00,334.59 1039.56,399.74 1043.11,440.93 1046.67,185.27 1050.22,419.39 1053.78,323.95 1057.33,324.65 1060.89,432.78 1064.44,490.72 1068.00,385.39 1071.56,487.36 1075.11,385.03 1078.67,441.56 1082.22,433.47 1085.78,344.94 1089.33,433.46 1092.89,299.67 1096.44,436.25 1100.00,420.40 1103.56,347.57 1107.11,394.92 1110.67,421.68 1114.22,334.28 1117.78,404.24 1121.33,468.67 1124.89,451.29 1128.44,322.91 1132.00,449.28 1135.56,501.47 1139.11,455.02 1142.67,473.01 1146.22,471.13 1149.78,466.16 1153.33,338.18 1156.89,472.13 1160.44,466.23 1164.00,286.19 1167.56,398.12 1171.11,436.89 1174.67,430.96 1178.22,302.65 1181.78,450.51 1185.33,358.70 1188.89,338.29 1192.44,523.83 1196.00,348.56 1199.56,403.19 1203.11,385.78 1206.67,322.85 1210.22,348.14 1213.78,351.84 1217.33,457.15 1220.89,350.99 1224.44,424.34 1228.00,403.30 1231.56,486.36 1235.11,506.56 1238.67,396.63 1242.22,358.26 1245.78,435.21 1249.33,459.29 1252.89,401.04 1256.44,413.07 1260.00,444.05 1263.56,377.44 1267.11,411.67 1270.67,481.26 1274.22,455.91 1277.78,425.93 1281.33,413.93 1284.89,446.93 1288.44,401.30 1292.00,404.18" fill="none" stroke="#355C7D" stroke-width="2.2" stroke-linejoin="round"/>
<polyline points="108.00,491.42 111.56,413.99 115.11,411.70 118.67,386.58 122.22,383.09 125.78,358.35 129.33,309.37 132.89,408.16 136.44,340.09 140.00,495.81 143.56,422.02 147.11,453.00 150.67,457.13 154.22,406.40 157.78,469.60 161.33,473.30 164.89,394.90 168.44,418.49 172.00,467.66 175.56,385.64 179.11,352.60 182.67,387.20 186.22,365.08 189.78,344.83 193.33,299.14 196.89,455.11 200.44,431.07 204.00,401.84 207.56,493.42 211.11,385.86 214.67,468.63 218.22,448.17 221.78,393.36 225.33,456.36 228.89,457.20 232.44,435.60 236.00,488.44 239.56,457.25 243.11,375.44 246.67,496.95 250.22,402.30 253.78,467.86 257.33,283.11 260.89,330.46 264.44,516.11 268.00,344.67 271.56,394.46 275.11,557.83 278.67,463.72 282.22,486.05 285.78,335.19 289.33,392.35 292.89,495.49 296.44,360.07 300.00,383.08 303.56,442.94 307.11,430.22 310.67,440.37 314.22,333.81 317.78,337.22 321.33,342.41 324.89,386.61 328.44,476.45 332.00,481.24 335.56,442.62 339.11,390.75 342.67,384.98 346.22,384.18 349.78,306.61 353.33,444.40 356.89,409.13 360.44,456.29 364.00,494.67 367.56,353.57 371.11,354.05 374.67,369.43 378.22,440.10 381.78,439.69 385.33,420.17 388.89,475.23 392.44,373.44 396.00,412.64 399.56,458.16 403.11,437.78 406.67,442.44 410.22,383.54 413.78,327.28 417.33,411.97 420.89,437.91 424.44,427.02 428.00,332.30 431.56,357.61 435.11,424.10 438.67,405.46 442.22,411.69 445.78,392.53 449.33,449.72 452.89,448.57 456.44,361.32 460.00,387.75 463.56,335.54 467.11,431.88 470.67,287.08 474.22,297.39 477.78,421.48 481.33,372.24 484.89,346.97 488.44,352.04 492.00,385.84 495.56,334.43 499.11,417.98 502.67,357.50 506.22,417.11 509.78,317.00 513.33,437.01 516.89,290.61 520.44,363.77 524.00,287.60 527.56,368.64 531.11,346.28 534.67,333.02 538.22,442.56 541.78,267.36 545.33,515.16 548.89,397.29 552.44,487.66 556.00,470.73 559.56,368.31 563.11,416.69 566.67,473.23 570.22,415.68 573.78,378.23 577.33,461.10 580.89,424.56 584.44,393.53 588.00,393.22 591.56,358.98 595.11,255.79 598.67,460.96 602.22,382.09 605.78,355.49 609.33,403.49 612.89,362.35 616.44,420.54 620.00,400.71 623.56,374.27 627.11,432.50 630.67,342.52 634.22,456.75 637.78,439.46 641.33,423.93 644.89,432.30 648.44,335.69 652.00,293.75 655.56,416.17 659.11,358.89 662.67,452.47 666.22,445.35 669.78,353.85 673.33,425.25 676.89,398.38 680.44,377.38 684.00,385.62 687.56,423.80 691.11,481.50 694.67,479.07 698.22,401.80 701.78,360.45 705.33,575.74 708.89,351.62 712.44,484.20 716.00,195.49 719.56,461.72 723.11,389.61 726.67,327.52 730.22,386.02 733.78,450.74 737.33,414.96 740.89,361.08 744.44,381.92 748.00,449.64 751.56,516.69 755.11,409.81 758.67,387.91 762.22,299.28 765.78,366.52 769.33,428.63 772.89,333.03 776.44,419.51 780.00,447.59 783.56,437.34 787.11,356.18 790.67,345.71 794.22,415.62 797.78,313.12 801.33,342.06 804.89,430.07 808.44,334.34 812.00,349.41 815.56,429.79 819.11,446.48 822.67,429.79 826.22,510.83 829.78,516.39 833.33,501.58 836.89,380.94 840.44,351.93 844.00,274.98 847.56,371.14 851.11,461.76 854.67,382.99 858.22,408.64 861.78,431.89 865.33,298.34 868.89,422.40 872.44,423.99 876.00,457.76 879.56,401.16 883.11,307.68 886.67,414.74 890.22,329.35 893.78,504.21 897.33,445.65 900.89,550.03 904.44,362.79 908.00,415.37 911.56,461.69 915.11,328.46 918.67,417.66 922.22,300.41 925.78,411.63 929.33,365.22 932.89,296.18 936.44,423.81 940.00,385.12 943.56,475.94 947.11,307.66 950.67,413.81 954.22,356.28 957.78,276.27 961.33,515.55 964.89,440.77 968.44,254.09 972.00,300.17 975.56,477.50 979.11,430.62 982.67,431.08 986.22,443.90 989.78,433.93 993.33,467.81 996.89,481.97 1000.44,315.42 1004.00,406.23 1007.56,386.37 1011.11,457.15 1014.67,546.85 1018.22,515.74 1021.78,441.19 1025.33,487.90 1028.89,291.93 1032.44,412.86 1036.00,372.43 1039.56,397.19 1043.11,491.74 1046.67,511.27 1050.22,447.45 1053.78,450.18 1057.33,513.62 1060.89,316.05 1064.44,422.38 1068.00,396.39 1071.56,474.55 1075.11,434.18 1078.67,442.65 1082.22,328.83 1085.78,406.67 1089.33,384.69 1092.89,476.69 1096.44,394.50 1100.00,312.36 1103.56,455.96 1107.11,430.17 1110.67,348.29 1114.22,376.31 1117.78,305.94 1121.33,444.30 1124.89,536.66 1128.44,402.69 1132.00,379.01 1135.56,331.75 1139.11,497.50 1142.67,326.98 1146.22,434.86 1149.78,349.98 1153.33,401.34 1156.89,377.24 1160.44,429.64 1164.00,381.38 1167.56,355.92 1171.11,374.64 1174.67,362.20 1178.22,419.27 1181.78,381.46 1185.33,378.25 1188.89,360.29 1192.44,397.95 1196.00,406.11 1199.56,365.24 1203.11,408.46 1206.67,455.67 1210.22,299.92 1213.78,407.18 1217.33,378.74 1220.89,406.86 1224.44,359.57 1228.00,371.22 1231.56,405.32 1235.11,387.78 1238.67,413.59 1242.22,432.16 1245.78,376.09 1249.33,376.74 1252.89,425.14 1256.44,446.06 1260.00,434.87 1263.56,430.87 1267.11,400.93 1270.67,479.73 1274.22,445.75 1277.78,422.46 1281.33,425.37 1284.89,382.72 1288.44,377.46 1292.00,420.36" fill="none" stroke="#2A9D8F" stroke-width="2.2" stroke-linejoin="round"/>
<polyline points="108.00,404.59 111.56,389.61 115.11,417.06 118.67,427.78 122.22,402.47 125.78,430.89 129.33,392.45 132.89,413.19 136.44,384.67 140.00,399.21 143.56,419.09 147.11,433.21 150.67,392.70 154.22,389.87 157.78,430.40 161.33,441.77 164.89,447.76 168.44,430.94 172.00,402.81 175.56,406.88 179.11,413.35 182.67,424.85 186.22,445.73 189.78,412.77 193.33,434.39 196.89,407.26 200.44,412.29 204.00,435.94 207.56,402.46 211.11,402.51 214.67,412.27 218.22,441.95 221.78,458.64 225.33,410.75 228.89,445.20 232.44,395.23 236.00,408.05 239.56,419.35 243.11,417.62 246.67,421.18 250.22,390.19 253.78,391.02 257.33,368.77 260.89,392.10 264.44,404.90 268.00,405.63 271.56,360.17 275.11,437.40 278.67,418.02 282.22,414.11 285.78,382.28 289.33,390.77 292.89,429.58 296.44,404.45 300.00,416.75 303.56,407.99 307.11,404.84 310.67,455.82 314.22,443.30 317.78,400.18 321.33,404.42 324.89,390.22 328.44,378.44 332.00,468.04 335.56,390.87 339.11,414.17 342.67,414.08 346.22,382.46 349.78,431.56 353.33,433.39 356.89,412.56 360.44,420.22 364.00,466.33 367.56,434.16 371.11,403.65 374.67,435.65 378.22,466.99 381.78,397.21 385.33,412.52 388.89,410.57 392.44,439.27 396.00,419.74 399.56,340.50 403.11,392.81 406.67,389.17 410.22,428.48 413.78,399.83 417.33,419.87 420.89,435.24 424.44,402.32 428.00,409.82 431.56,372.93 435.11,431.15 438.67,437.62 442.22,415.17 445.78,393.07 449.33,427.30 452.89,429.69 456.44,420.78 460.00,425.30 463.56,420.28 467.11,378.67 470.67,436.84 474.22,419.82 477.78,418.09 481.33,421.50 484.89,400.58 488.44,367.38 492.00,425.16 495.56,420.17 499.11,429.29 502.67,315.56 506.22,364.51 509.78,447.02 513.33,402.34 516.89,380.20 520.44,395.14 524.00,424.54 527.56,424.53 531.11,371.84 534.67,431.38 538.22,420.35 541.78,418.00 545.33,368.72 548.89,427.62 552.44,435.89 556.00,393.77 559.56,409.99 563.11,381.48 566.67,388.04 570.22,392.18 573.78,414.32 577.33,420.33 580.89,460.84 584.44,380.10 588.00,440.81 591.56,415.74 595.11,393.21 598.67,351.68 602.22,418.36 605.78,337.01 609.33,415.75 612.89,440.54 616.44,401.39 620.00,393.70 623.56,410.50 627.11,462.13 630.67,393.48 634.22,408.86 637.78,417.79 641.33,423.47 644.89,420.20 648.44,412.08 652.00,398.22 655.56,468.47 659.11,398.01 662.67,351.79 666.22,387.14 669.78,414.96 673.33,435.25 676.89,421.85 680.44,357.29 684.00,431.74 687.56,387.48 691.11,475.34 694.67,401.46 698.22,415.80 701.78,479.84 705.33,397.70 708.89,394.55 712.44,394.97 716.00,418.99 719.56,409.10 723.11,402.86 726.67,416.47 730.22,397.60 733.78,428.50 737.33,425.68 740.89,372.85 744.44,354.42 748.00,413.43 751.56,387.62 755.11,447.86 758.67,462.25 762.22,465.87 765.78,426.03 769.33,403.74 772.89,406.37 776.44,395.74 780.00,375.67 783.56,426.20 787.11,389.50 790.67,387.70 794.22,387.88 797.78,385.79 801.33,429.19 804.89,397.37 808.44,399.53 812.00,426.29 815.56,407.96 819.11,445.07 822.67,431.45 826.22,436.06 829.78,423.02 833.33,383.15 836.89,415.09 840.44,390.14 844.00,388.19 847.56,387.40 851.11,399.74 854.67,402.74 858.22,439.18 861.78,406.59 865.33,431.23 868.89,431.67 872.44,440.07 876.00,452.04 879.56,413.23 883.11,417.20 886.67,380.49 890.22,391.99 893.78,410.16 897.33,422.61 900.89,376.87 904.44,437.67 908.00,387.30 911.56,434.82 915.11,399.33 918.67,412.76 922.22,384.13 925.78,417.42 929.33,426.49 932.89,407.44 936.44,402.47 940.00,405.58 943.56,418.29 947.11,383.73 950.67,444.89 954.22,423.69 957.78,423.24 961.33,403.69 964.89,370.13 968.44,372.27 972.00,393.28 975.56,431.31 979.11,449.01 982.67,395.06 986.22,444.52 989.78,394.28 993.33,425.83 996.89,424.22 1000.44,429.87 1004.00,417.50 1007.56,451.69 1011.11,478.90 1014.67,406.64 1018.22,415.66 1021.78,424.97 1025.33,396.84 1028.89,430.58 1032.44,437.79 1036.00,398.48 1039.56,397.14 1043.11,413.06 1046.67,413.81 1050.22,400.79 1053.78,435.00 1057.33,423.79 1060.89,398.43 1064.44,396.76 1068.00,393.28 1071.56,418.04 1075.11,431.59 1078.67,422.67 1082.22,399.51 1085.78,394.97 1089.33,411.14 1092.89,404.79 1096.44,389.92 1100.00,410.44 1103.56,400.39 1107.11,409.27 1110.67,409.68 1114.22,407.93 1117.78,418.96 1121.33,447.78 1124.89,411.05 1128.44,423.48 1132.00,401.50 1135.56,393.73 1139.11,423.00 1142.67,403.39 1146.22,410.65 1149.78,422.01 1153.33,420.56 1156.89,412.65 1160.44,425.83 1164.00,403.41 1167.56,406.71 1171.11,418.93 1174.67,415.94 1178.22,390.57 1181.78,403.55 1185.33,413.44 1188.89,400.72 1192.44,387.99 1196.00,397.74 1199.56,411.47 1203.11,407.58 1206.67,399.35 1210.22,409.54 1213.78,419.07 1217.33,408.69 1220.89,414.96 1224.44,393.84 1228.00,396.21 1231.56,387.82 1235.11,403.32 1238.67,421.50 1242.22,426.40 1245.78,412.31 1249.33,431.70 1252.89,415.47 1256.44,385.34 1260.00,411.14 1263.56,420.92 1267.11,429.45 1270.67,394.92 1274.22,430.36 1277.78,392.32 1281.33,412.07 1284.89,383.25 1288.44,404.72 1292.00,401.91" fill="none" stroke="#E9C46A" stroke-width="2.2" stroke-linejoin="round"/>
<polyline points="108.00,410.51 111.56,410.51 115.11,410.51 118.67,410.52 122.22,410.52 125.78,410.52 129.33,410.52 132.89,410.52 136.44,410.52 140.00,410.51 143.56,410.51 147.11,410.51 150.67,410.51 154.22,410.51 157.78,410.51 161.33,410.51 164.89,410.51 168.44,410.51 172.00,410.51 175.56,410.51 179.11,410.51 182.67,410.52 186.22,410.52 189.78,410.51 193.33,410.51 196.89,410.50 200.44,410.50 204.00,410.48 207.56,410.48 211.11,410.48 214.67,410.47 218.22,410.47 221.78,410.46 225.33,410.45 228.89,410.46 232.44,410.46 236.00,410.47 239.56,410.49 243.11,410.52 246.67,410.51 250.22,410.50 253.78,410.49 257.33,410.48 260.89,410.48 264.44,410.46 268.00,410.46 271.56,410.43 275.11,410.43 278.67,410.43 282.22,410.41 285.78,410.88 289.33,411.43 292.89,412.00 296.44,412.83 300.00,413.35 303.56,414.12 307.11,414.77 310.67,415.31 314.22,415.37 317.78,416.41 321.33,417.69 324.89,418.06 328.44,419.60 332.00,419.26 335.56,419.77 339.11,420.20 342.67,420.21 346.22,422.16 349.78,421.33 353.33,423.50 356.89,421.52 360.44,422.07 364.00,424.84 367.56,425.22 371.11,423.89 374.67,423.58 378.22,425.11 381.78,425.67 385.33,422.78 388.89,426.43 392.44,424.90 396.00,425.96 399.56,426.60 403.11,427.40 406.67,425.30 410.22,424.04 413.78,424.97 417.33,423.91 420.89,425.27 424.44,424.49 428.00,421.04 431.56,423.18 435.11,422.29 438.67,423.25 442.22,424.12 445.78,422.31 449.33,424.57 452.89,421.95 456.44,422.28 460.00,421.70 463.56,422.47 467.11,425.49 470.67,422.26 474.22,418.89 477.78,422.40 481.33,421.88 484.89,420.16 488.44,422.51 492.00,421.70 495.56,419.52 499.11,419.09 502.67,422.13 506.22,421.24 509.78,419.02 513.33,417.24 516.89,417.45 520.44,417.68 524.00,417.33 527.56,415.75 531.11,417.79 534.67,415.79 538.22,417.17 541.78,417.81 545.33,415.05 548.89,417.92 552.44,415.35 556.00,417.25 559.56,417.46 563.11,415.24 566.67,414.29 570.22,414.42 573.78,413.46 577.33,412.32 580.89,411.24 584.44,413.63 588.00,414.04 591.56,413.08 595.11,415.07 598.67,414.29 602.22,415.73 605.78,413.72 609.33,413.58 612.89,414.52 616.44,418.77 620.00,415.76 623.56,416.55 627.11,413.01 630.67,413.02 634.22,411.72 637.78,415.08 641.33,415.39 644.89,413.66 648.44,413.27 652.00,417.97 655.56,415.33 659.11,414.60 662.67,416.27 666.22,411.12 669.78,416.03 673.33,415.34 676.89,415.67 680.44,418.29 684.00,418.57 687.56,416.75 691.11,419.24 694.67,419.41 698.22,416.33 701.78,415.58 705.33,417.82 708.89,419.19 712.44,418.04 716.00,418.12 719.56,417.87 723.11,421.66 726.67,418.67 730.22,419.93 733.78,420.90 737.33,421.02 740.89,422.84 744.44,421.65 748.00,422.57 751.56,423.78 755.11,423.56 758.67,423.88 762.22,425.15 765.78,424.37 769.33,424.44 772.89,424.78 776.44,425.79 780.00,424.05 783.56,426.04 787.11,425.52 790.67,425.41 794.22,427.29 797.78,425.59 801.33,426.96 804.89,426.71 808.44,426.20 812.00,425.26 815.56,427.38 819.11,425.84 822.67,425.71 826.22,427.05 829.78,426.20 833.33,424.56 836.89,424.99 840.44,425.78 844.00,422.79 847.56,423.73 851.11,423.38 854.67,423.49 858.22,423.10 861.78,421.93 865.33,423.47 868.89,420.07 872.44,419.42 876.00,421.25 879.56,419.99 883.11,418.62 886.67,418.66 890.22,418.15 893.78,417.02 897.33,416.24 900.89,415.67 904.44,415.10 908.00,414.52 911.56,413.41 915.11,413.16 918.67,412.40 922.22,411.94 925.78,411.17 929.33,410.61 932.89,410.42 936.44,410.43 940.00,410.45 943.56,410.45 947.11,410.47 950.67,410.47 954.22,410.48 957.78,410.49 961.33,410.49 964.89,410.51 968.44,410.51 972.00,410.50 975.56,410.48 979.11,410.46 982.67,410.45 986.22,410.44 989.78,410.44 993.33,410.45 996.89,410.45 1000.44,410.47 1004.00,410.47 1007.56,410.48 1011.11,410.49 1014.67,410.50 1018.22,410.50 1021.78,410.51 1025.33,410.51 1028.89,410.52 1032.44,410.51 1036.00,410.51 1039.56,410.51 1043.11,410.51 1046.67,410.51 1050.22,410.51 1053.78,410.51 1057.33,410.51 1060.89,410.51 1064.44,410.51 1068.00,410.51 1071.56,410.51 1075.11,410.52 1078.67,410.52 1082.22,410.52 1085.78,410.52 1089.33,410.52 1092.89,410.52 1096.44,410.51 1100.00,410.51 1103.56,410.51 1107.11,410.51 1110.67,410.51 1114.22,410.51 1117.78,410.51 1121.33,410.51 1124.89,410.51 1128.44,410.51 1132.00,410.51 1135.56,410.51 1139.11,410.51 1142.67,410.51 1146.22,410.52 1149.78,410.52 1153.33,410.52 1156.89,410.52 1160.44,410.52 1164.00,410.52 1167.56,410.52 1171.11,410.52 1174.67,410.52 1178.22,410.52 1181.78,410.52 1185.33,410.52 1188.89,410.52 1192.44,410.52 1196.00,410.52 1199.56,410.52 1203.11,410.52 1206.67,410.52 1210.22,410.52 1213.78,410.52 1217.33,410.52 1220.89,410.52 1224.44,410.52 1228.00,410.52 1231.56,410.52 1235.11,410.52 1238.67,410.52 1242.22,410.52 1245.78,410.52 1249.33,410.52 1252.89,410.52 1256.44,410.52 1260.00,410.52 1263.56,410.52 1267.11,410.52 1270.67,410.52 1274.22,410.52 1277.78,410.52 1281.33,410.52 1284.89,410.52 1288.44,410.52 1292.00,410.52" fill="none" stroke="#E76F51" stroke-width="2.2" stroke-linejoin="round"/>
<line x1="108" y1="64" x2="140" y2="64" stroke="#355C7D" stroke-width="4"/>
<text x="148" y="69" font-size="15">0:00</text>
<line x1="263" y1="64" x2="295" y2="64" stroke="#2A9D8F" stroke-width="4"/>
<text x="303" y="69" font-size="15">6:00</text>
<line x1="418" y1="64" x2="450" y2="64" stroke="#E9C46A" stroke-width="4"/>
<text x="458" y="69" font-size="15">12:00</text>
<line x1="573" y1="64" x2="605" y2="64" stroke="#E76F51" stroke-width="4"/>
<text x="613" y="69" font-size="15">18:00</text>
<text x="25" y="359.0" font-size="16" text-anchor="middle" transform="rotate(-90 25 359.0)">残差/kW</text>
<text x="700.0" y="696" font-size="16" text-anchor="middle">日期</text>
<rect x="108" y="88" width="1184" height="542" fill="none" stroke="#90A4AE"/>
</svg>