<svg xmlns="http://www.w3.org/2000/svg" width="1400" height="720" viewBox="0 0 1400 720">
<rect width="100%" height="100%" fill="#FFFFFF"/>
<style>text{font-family:"Microsoft YaHei","SimHei",Arial,sans-serif;fill:#263238}</style>
<text x="105" y="38" font-size="26" font-weight="700">问题一：储能充放电功率</text>
<line x1="105" y1="632.00" x2="1305" y2="632.00" stroke="#E4EAF0" stroke-width="1"/>
<text x="93" y="637.00" text-anchor="end" font-size="14">-4851</text>
<line x1="105" y1="521.20" x2="1305" y2="521.20" stroke="#E4EAF0" stroke-width="1"/>
<text x="93" y="526.20" text-anchor="end" font-size="14">-2770</text>
<line x1="105" y1="410.40" x2="1305" y2="410.40" stroke="#E4EAF0" stroke-width="1"/>
<text x="93" y="415.40" text-anchor="end" font-size="14">-688</text>
<line x1="105" y1="299.60" x2="1305" y2="299.60" stroke="#E4EAF0" stroke-width="1"/>
<text x="93" y="304.60" text-anchor="end" font-size="14">1394</text>
<line x1="105" y1="188.80" x2="1305" y2="188.80" stroke="#E4EAF0" stroke-width="1"/>
<text x="93" y="193.80" text-anchor="end" font-size="14">3476</text>
<line x1="105" y1="78.00" x2="1305" y2="78.00" stroke="#E4EAF0" stroke-width="1"/>
<text x="93" y="83.00" text-anchor="end" font-size="14">5558</text>
<line x1="105.00" y1="78" x2="105.00" y2="632" stroke="#F0F3F6" stroke-width="1"/>
<text x="105.00" y="660" text-anchor="middle" font-size="14">00:00</text>
<line x1="306.40" y1="78" x2="306.40" y2="632" stroke="#F0F3F6" stroke-width="1"/>
<text x="306.40" y="660" text-anchor="middle" font-size="14">04:00</text>
<line x1="507.80" y1="78" x2="507.80" y2="632" stroke="#F0F3F6" stroke-width="1"/>
<text x="507.80" y="660" text-anchor="middle" font-size="14">08:00</text>
<line x1="709.20" y1="78" x2="709.20" y2="632" stroke="#F0F3F6" stroke-width="1"/>
<text x="709.20" y="660" text-anchor="middle" font-size="14">12:00</text>
<line x1="910.59" y1="78" x2="910.59" y2="632" stroke="#F0F3F6" stroke-width="1"/>
<text x="910.59" y="660" text-anchor="middle" font-size="14">16:00</text>
<line x1="1111.99" y1="78" x2="1111.99" y2="632" stroke="#F0F3F6" stroke-width="1"/>
<text x="1111.99" y="660" text-anchor="middle" font-size="14">20:00</text>
<line x1="1305.00" y1="78" x2="1305.00" y2="632" stroke="#F0F3F6" stroke-width="1"/>
<text x="1305.00" y="660" text-anchor="middle" font-size="14">24:00</text>
<line x1="105" y1="373.79" x2="1305" y2="373.79" stroke="#607D8B" stroke-width="1.4"/>
<polyline points="105.00,107.68 113.39,107.68 121.78,107.68 130.17,107.68 138.57,107.68 146.96,373.79 155.35,373.79 163.74,373.79 172.13,267.35 180.52,373.79 188.92,373.79 197.31,373.79 205.70,373.79 214.09,373.79 222.48,373.79 230.87,373.79 239.27,373.79 247.66,373.79 256.05,373.79 264.44,373.79 272.83,373.79 281.22,373.79 289.62,373.79 298.01,373.79 306.40,373.79 314.79,373.79 323.18,373.79 331.57,373.79 339.97,373.79 348.36,373.79 356.75,373.79 365.14,373.79 373.53,373.79 381.92,107.68 390.31,373.79 398.71,373.79 407.10,373.79 415.49,373.79 423.88,373.79 432.27,373.79 440.66,373.79 449.06,373.79 457.45,373.79 465.84,373.79 474.23,373.79 482.62,373.79 491.01,373.79 499.41,373.79 507.80,373.79 516.19,373.79 524.58,373.79 532.97,373.79 541.36,373.79 549.76,373.79 558.15,373.79 566.54,373.79 574.93,373.79 583.32,368.22 591.71,356.92 600.10,346.79 608.50,336.43 616.89,326.96 625.28,318.39 633.67,309.59 642.06,301.82 650.45,295.86 658.85,107.68 667.24,286.72 675.63,282.99 684.02,224.25 692.41,107.68 700.80,107.68 709.20,107.68 717.59,107.68 725.98,107.68 734.37,107.68 742.76,276.54 751.15,289.33 759.55,296.35 767.94,302.56 776.33,310.32 784.72,317.15 793.11,325.34 801.50,335.45 809.90,345.74 818.29,356.67 826.68,368.59 835.07,373.79 843.46,373.79 851.85,373.79 860.24,337.89 868.64,373.79 877.03,373.79 885.42,373.79 893.81,373.79 902.20,373.79 910.59,373.79 918.99,373.79 927.38,373.79 935.77,373.79 944.16,373.79 952.55,373.79 960.94,373.79 969.34,373.79 977.73,373.79 986.12,373.79 994.51,373.79 1002.90,373.79 1011.29,373.79 1019.69,373.79 1028.08,373.79 1036.47,373.79 1044.86,373.79 1053.25,373.79 1061.64,373.79 1070.03,373.79 1078.43,373.79 1086.82,373.79 1095.21,373.79 1103.60,373.79 1111.99,373.79 1120.38,373.79 1128.78,373.79 1137.17,373.79 1145.56,373.79 1153.95,373.79 1162.34,373.79 1170.73,373.79 1179.13,373.79 1187.52,373.79 1195.91,373.79 1204.30,107.68 1212.69,107.68 1221.08,373.79 1229.48,107.68 1237.87,107.68 1246.26,373.79 1254.65,107.68 1263.04,373.79 1271.43,373.77 1279.83,107.68 1288.22,267.36 1296.61,373.79 1305.00,373.79" fill="none" stroke="#2E7D32" stroke-width="2.4" stroke-linejoin="round" stroke-linecap="round"/>
<polyline points="105.00,373.79 113.39,373.79 121.78,373.79 130.17,373.79 138.57,373.79 146.96,373.79 155.35,373.79 163.74,373.79 172.13,373.79 180.52,373.79 188.92,373.79 197.31,373.79 205.70,373.79 214.09,373.79 222.48,373.79 230.87,373.79 239.27,373.79 247.66,373.79 256.05,373.79 264.44,373.79 272.83,373.79 281.22,373.79 289.62,373.79 298.01,373.79 306.40,373.79 314.79,373.79 323.18,373.79 331.57,373.79 339.97,373.79 348.36,373.79 356.75,373.79 365.14,373.79 373.53,373.79 381.92,373.79 390.31,373.79 398.71,587.19 407.10,583.11 415.49,570.66 423.88,562.66 432.27,551.81 440.66,542.80 449.06,534.25 457.45,519.23 465.84,504.73 474.23,487.79 482.62,464.28 491.01,476.19 499.41,507.41 507.80,495.75 516.19,472.65 524.58,458.29 532.97,442.05 541.36,430.81 549.76,423.41 558.15,409.65 566.54,394.36 574.93,380.99 583.32,373.79 591.71,373.79 600.10,373.79 608.50,373.79 616.89,373.79 625.28,373.79 633.67,373.79 642.06,373.79 650.45,373.79 658.85,373.79 667.24,373.79 675.63,373.79 684.02,373.79 692.41,373.79 700.80,373.79 709.20,373.79 717.59,373.79 725.98,373.79 734.37,373.79 742.76,373.79 751.15,373.79 759.55,373.79 767.94,373.79 776.33,373.79 784.72,373.79 793.11,373.79 801.50,373.79 809.90,373.79 818.29,373.79 826.68,373.79 835.07,381.38 843.46,395.29 851.85,373.79 860.24,373.79 868.64,373.79 877.03,373.79 885.42,373.79 893.81,373.79 902.20,373.79 910.59,373.79 918.99,373.79 927.38,373.79 935.77,373.79 944.16,373.79 952.55,373.79 960.94,373.79 969.34,373.79 977.73,373.79 986.12,373.79 994.51,373.79 1002.90,373.79 1011.29,408.77 1019.69,373.79 1028.08,373.79 1036.47,373.79 1044.86,598.80 1053.25,599.39 1061.64,599.69 1070.03,600.05 1078.43,600.34 1086.82,600.91 1095.21,601.04 1103.60,600.97 1111.99,601.70 1120.38,602.21 1128.78,602.18 1137.17,602.32 1145.56,373.79 1153.95,373.79 1162.34,373.79 1170.73,373.79 1179.13,373.79 1187.52,373.79 1195.91,373.79 1204.30,373.79 1212.69,373.79 1221.08,373.79 1229.48,373.79 1237.87,373.79 1246.26,373.79 1254.65,373.79 1263.04,373.79 1271.43,373.79 1279.83,373.79 1288.22,373.79 1296.61,373.79 1305.00,373.79" fill="none" stroke="#C62828" stroke-width="2.4" stroke-linejoin="round" stroke-linecap="round"/>
<line x1="105" y1="62" x2="139" y2="62" stroke="#2E7D32" stroke-width="4"/>
<text x="148" y="67" font-size="15">充电功率</text>
<line x1="260" y1="62" x2="294" y2="62" stroke="#C62828" stroke-width="4"/>
<text x="303" y="67" font-size="15">放电功率</text>
<text x="24" y="355.0" font-size="16" text-anchor="middle" transform="rotate(-90 24 355.0)">功率/kW（放电为负）</text>
<text x="705.0" y="696" font-size="16" text-anchor="middle">时间</text>
<rect x="105" y="78" width="1200" height="554" fill="none" stroke="#90A4AE" stroke-width="1.2"/>
</svg>